<svg xmlns="http://www.w3.org/2000/svg" viewBox="0 0 841.9 595.3">

    <symbol id="icon-logo" viewBox="0 0 70 70">
        <path d="M11.0169 9.62137C7.39143 12.6426 0.112654 22.0036 0.00110203 35.2783C-0.11045 48.553 8.27455 58.5648 12.5507 61.9114C15.7114 64.8396 24.8214 70.5288 35.4189 69.8595C39.3232 69.6129 45.598 64.1424 45.598 48.2463C45.598 32.3501 39.4626 27.888 33.6061 27.888L37.9288 0H31.5146L26.7736 27.888C26.4947 29.7472 26.2158 35.1389 25.7975 35.6967C24.2637 38.7643 17.71 49.2223 14.224 48.9435C9.5063 48.5661 7.11253 40.5771 7.25197 34.5811C7.94917 25.657 8.78584 13.7488 11.0169 9.62137Z" fill="#E4E6EA"/>
        <path d="M17.71 4.46208L24.8214 1.25496L19.941 31.0951C19.5692 34.0699 19.2438 40.2703 20.9171 41.2743C18.3142 43.4588 13.22 45.4017 13.6662 35.6967C14.1124 25.9916 16.548 10.8298 17.71 4.46208Z" fill="#E4E6EA"/>
        <path d="M43.7853 0.976081L50.0601 3.34656L45.7374 29.5613C50.8967 30.2585 58.9563 34.7206 58.287 52.0111C58.1941 54.3351 57.8129 59.5688 57.0321 61.9114C56.2512 64.254 50.1995 66.6059 47.2713 67.489C48.8051 65.165 51.8728 58.5927 51.8728 50.8956C51.8728 41.2743 49.084 29.2824 39.3232 28.5852L43.7853 0.976081Z" fill="#E4E6EA"/>
        <path d="M55.6377 6.83256L61.3547 11.2946L58.287 32.3501C61.2153 32.3501 67.267 34.609 69.1634 41.9715C68.8845 44.3419 67.5737 49.9474 64.5618 53.4055C65.0731 46.573 63.53 32.8521 52.1517 31.5135L55.6377 6.83256Z" fill="#E4E6EA"/>
        <path d="M64.4224 33.8839L70 34.86C70 31.7923 69.0518 24.4857 66.3746 19.8005C65.9562 23.2865 65.1196 30.3979 64.4224 33.8839Z" fill="#E4E6EA"/>
    </symbol>

    <symbol id="icon-account" viewBox="0 0 512 512">
        <path d="M258.9 48C141.92 46.42 46.42 141.92 48 258.9c1.56 112.19 92.91 203.54 205.1 205.1 117 1.6 212.48-93.9 210.88-210.88C462.44 140.91 371.09 49.56 258.9 48zm126.42 327.25a4 4 0 01-6.14-.32 124.27 124.27 0 00-32.35-29.59C321.37 329 289.11 320 256 320s-65.37 9-90.83 25.34a124.24 124.24 0 00-32.35 29.58 4 4 0 01-6.14.32A175.32 175.32 0 0180 259c-1.63-97.31 78.22-178.76 175.57-179S432 158.81 432 256a175.32 175.32 0 01-46.68 119.25z"/><path d="M256 144c-19.72 0-37.55 7.39-50.22 20.82s-19 32-17.57 51.93C191.11 256 221.52 288 256 288s64.83-32 67.79-71.24c1.48-19.74-4.8-38.14-17.68-51.82C293.39 151.44 275.59 144 256 144z"/>
    </symbol>

    <symbol id="icon-add" viewBox="0 0 512 512">
        <path d="M448 256c0-106-86-192-192-192S64 150 64 256s86 192 192 192 192-86 192-192z" fill="none" stroke="currentColor" stroke-miterlimit="10" stroke-width="32"/><path fill="none" stroke="currentColor" stroke-linecap="round" stroke-linejoin="round" stroke-width="32" d="M256 176v160M336 256H176"/>
    </symbol>
    
    <symbol id="icon-bell" viewBox="0 0 24 24">
        <g id="_01_align_center" data-name="01 align center"><path d="M23.259,16.2l-2.6-9.371A9.321,9.321,0,0,0,2.576,7.3L.565,16.35A3,3,0,0,0,3.493,20H7.1a5,5,0,0,0,9.8,0h3.47a3,3,0,0,0,2.89-3.8ZM12,22a3,3,0,0,1-2.816-2h5.632A3,3,0,0,1,12,22Zm9.165-4.395a.993.993,0,0,1-.8.395H3.493a1,1,0,0,1-.976-1.217l2.011-9.05a7.321,7.321,0,0,1,14.2-.372l2.6,9.371A.993.993,0,0,1,21.165,17.605Z"/></g>
    </symbol>

    <symbol id="icon-mark" viewBox="0 0 24 24">
        <path d="M20.137,24a2.8,2.8,0,0,1-1.987-.835L12,17.051,5.85,23.169a2.8,2.8,0,0,1-3.095.609A2.8,2.8,0,0,1,1,21.154V5A5,5,0,0,1,6,0H18a5,5,0,0,1,5,5V21.154a2.8,2.8,0,0,1-1.751,2.624A2.867,2.867,0,0,1,20.137,24ZM6,2A3,3,0,0,0,3,5V21.154a.843.843,0,0,0,1.437.6h0L11.3,14.933a1,1,0,0,1,1.41,0l6.855,6.819a.843.843,0,0,0,1.437-.6V5a3,3,0,0,0-3-3Z"/>
    </symbol>
    
    <symbol id="icon-ismark" viewBox="0 0 24 24">
        <path d="M2.849,23.55a2.954,2.954,0,0,0,3.266-.644L12,17.053l5.885,5.853a2.956,2.956,0,0,0,2.1.881,3.05,3.05,0,0,0,1.17-.237A2.953,2.953,0,0,0,23,20.779V5a5.006,5.006,0,0,0-5-5H6A5.006,5.006,0,0,0,1,5V20.779A2.953,2.953,0,0,0,2.849,23.55Z"/>
    </symbol>

    <symbol id="icon-cancel" viewBox="0 0 512 512">
        <g><path d="M256,0C114.615,0,0,114.615,0,256s114.615,256,256,256s256-114.615,256-256C511.847,114.678,397.322,0.153,256,0z    M341.333,311.189c8.669,7.979,9.229,21.475,1.25,30.144c-7.979,8.669-21.475,9.229-30.144,1.25c-0.434-0.399-0.85-0.816-1.25-1.25   L256,286.165l-55.168,55.168c-8.475,8.185-21.98,7.95-30.165-0.525c-7.984-8.267-7.984-21.373,0-29.64L225.835,256l-55.168-55.168   c-8.185-8.475-7.95-21.98,0.525-30.165c8.267-7.984,21.373-7.984,29.64,0L256,225.835l55.189-55.168   c7.979-8.669,21.475-9.229,30.144-1.25c8.669,7.979,9.229,21.475,1.25,30.144c-0.399,0.434-0.816,0.85-1.25,1.25L286.165,256   L341.333,311.189z"/></g>
    </symbol>

    <symbol id="icon-location" viewBox="0 0 24 24">
        <path d="M12,6a4,4,0,1,0,4,4A4,4,0,0,0,12,6Zm0,6a2,2,0,1,1,2-2A2,2,0,0,1,12,12Z"/><path d="M12,24a5.271,5.271,0,0,1-4.311-2.2c-3.811-5.257-5.744-9.209-5.744-11.747a10.055,10.055,0,0,1,20.11,0c0,2.538-1.933,6.49-5.744,11.747A5.271,5.271,0,0,1,12,24ZM12,2.181a7.883,7.883,0,0,0-7.874,7.874c0,2.01,1.893,5.727,5.329,10.466a3.145,3.145,0,0,0,5.09,0c3.436-4.739,5.329-8.456,5.329-10.466A7.883,7.883,0,0,0,12,2.181Z"/>
    </symbol>
    
    <symbol id="icon-moder" viewBox="0 0 512 512">
        <g>
            <path d="M85.333,0h64c47.128,0,85.333,38.205,85.333,85.333v64c0,47.128-38.205,85.333-85.333,85.333h-64   C38.205,234.667,0,196.462,0,149.333v-64C0,38.205,38.205,0,85.333,0z"/>
            <path d="M362.667,0h64C473.795,0,512,38.205,512,85.333v64c0,47.128-38.205,85.333-85.333,85.333h-64   c-47.128,0-85.333-38.205-85.333-85.333v-64C277.333,38.205,315.538,0,362.667,0z"/>
            <path d="M85.333,277.333h64c47.128,0,85.333,38.205,85.333,85.333v64c0,47.128-38.205,85.333-85.333,85.333h-64   C38.205,512,0,473.795,0,426.667v-64C0,315.538,38.205,277.333,85.333,277.333z"/>
            <path d="M362.667,277.333h64c47.128,0,85.333,38.205,85.333,85.333v64C512,473.795,473.795,512,426.667,512h-64   c-47.128,0-85.333-38.205-85.333-85.333v-64C277.333,315.538,315.538,277.333,362.667,277.333z"/>
        </g>
    </symbol>

    <symbol id="icon-picture" viewBox="0 0 24 24">
        <path d="M19,0H5A5.006,5.006,0,0,0,0,5V19a5.006,5.006,0,0,0,5,5H19a5.006,5.006,0,0,0,5-5V5A5.006,5.006,0,0,0,19,0ZM5,2H19a3,3,0,0,1,3,3V19a2.951,2.951,0,0,1-.3,1.285l-9.163-9.163a5,5,0,0,0-7.072,0L2,14.586V5A3,3,0,0,1,5,2ZM5,22a3,3,0,0,1-3-3V17.414l4.878-4.878a3,3,0,0,1,4.244,0L20.285,21.7A2.951,2.951,0,0,1,19,22Z"/><path d="M16,10.5A3.5,3.5,0,1,0,12.5,7,3.5,3.5,0,0,0,16,10.5Zm0-5A1.5,1.5,0,1,1,14.5,7,1.5,1.5,0,0,1,16,5.5Z"/>
    </symbol>

    <symbol id="icon-sing" viewBox="0 0 24 24">
        <path d="M11.476,15a1,1,0,0,0-1,1v3a3,3,0,0,1-3,3H5a3,3,0,0,1-3-3V5A3,3,0,0,1,5,2H7.476a3,3,0,0,1,3,3V8a1,1,0,0,0,2,0V5a5.006,5.006,0,0,0-5-5H5A5.006,5.006,0,0,0,0,5V19a5.006,5.006,0,0,0,5,5H7.476a5.006,5.006,0,0,0,5-5V16A1,1,0,0,0,11.476,15Z"/><path d="M22.867,9.879,18.281,5.293a1,1,0,1,0-1.414,1.414l4.262,4.263L6,11a1,1,0,0,0,0,2H6l15.188-.031-4.323,4.324a1,1,0,1,0,1.414,1.414l4.586-4.586A3,3,0,0,0,22.867,9.879Z"/>
    </symbol>

    <symbol id="icon-star" viewBox="0 0 512 491">
        <path d="M221 86.4998C202.1 134.1 186.3 173.4 186 173.9C185.7 174.3 145.7 177.2 97.0001 180.4C48.3 183.5 6.80005 186.4 4.60005 186.8L0.800049 187.5L71.4 247.4C112.4 282.1 142 307.9 142 308.9C142 309.8 131.7 351 119 400.5C106.4 449.9 96.2001 490.5 96.4001 490.7C96.5001 490.8 131.9 468.6 175.1 441.3C224.6 409.9 254.4 391.6 256 391.6C257.6 391.6 287.4 409.9 336.9 441.3C380.1 468.6 415.5 490.8 415.6 490.7C415.8 490.5 405.6 449.9 393 400.5C380.3 351 370 309.8 370 308.9C370 307.9 399.6 282.1 440.6 247.4L511.2 187.5L507.4 186.8C505.2 186.4 463.7 183.5 415 180.4C366.3 177.2 326.3 174.3 326 173.9C325.7 173.4 309.9 134.1 291 86.4998C272.1 38.8998 256.3 -0.000153796 256 -0.000153796C255.7 -0.000153796 239.9 38.8998 221 86.4998ZM280.4 141.2C293.6 174.4 304.7 201.9 305.1 202.4C305.6 202.9 335.1 205.2 370.7 207.6C406.3 210 435.6 211.9 435.8 212C436 212 413.7 230.9 386.3 254.1C358.9 277.3 336.4 296.6 336.2 297C336 297.5 343.1 326.3 352 361.1C360.8 395.8 367.9 424.4 367.7 424.7C367.4 424.9 342.6 409.4 312.4 390.3C282.2 371.2 256.8 355.6 256 355.6C255.2 355.6 229.8 371.2 199.6 390.3C169.4 409.4 144.6 424.9 144.3 424.7C144.1 424.4 151.2 395.8 160 361.1C168.9 326.3 176 297.5 175.8 297C175.6 296.6 153.3 277.4 126.2 254.5C99.1001 231.6 77.1 212.6 77.4 212.3C77.7 212 106.7 209.9 142 207.5C177.2 205.2 206.4 202.9 206.9 202.4C207.3 201.9 218.4 174.4 231.6 141.2C244.7 108.1 255.7 80.9998 256 80.9998C256.3 80.9998 267.3 108.1 280.4 141.2Z" fill="black"/>
        <!-- <path d="M23.836,8.794a3.179,3.179,0,0,0-3.067-2.226H16.4L15.073,2.432a3.227,3.227,0,0,0-6.146,0L7.6,6.568H3.231a3.227,3.227,0,0,0-1.9,5.832L4.887,15,3.535,19.187A3.178,3.178,0,0,0,4.719,22.8a3.177,3.177,0,0,0,3.8-.019L12,20.219l3.482,2.559a3.227,3.227,0,0,0,4.983-3.591L19.113,15l3.56-2.6A3.177,3.177,0,0,0,23.836,8.794Zm-2.343,1.991-4.144,3.029a1,1,0,0,0-.362,1.116L18.562,19.8a1.227,1.227,0,0,1-1.895,1.365l-4.075-3a1,1,0,0,0-1.184,0l-4.075,3a1.227,1.227,0,0,1-1.9-1.365L7.013,14.93a1,1,0,0,0-.362-1.116L2.507,10.785a1.227,1.227,0,0,1,.724-2.217h5.1a1,1,0,0,0,.952-.694l1.55-4.831a1.227,1.227,0,0,1,2.336,0l1.55,4.831a1,1,0,0,0,.952.694h5.1a1.227,1.227,0,0,1,.724,2.217Z"/> -->
    </symbol>

    <symbol id="icon-people" viewBox="0 0 512 512">
        <path d="M256 464c-114.69 0-208-93.31-208-208S141.31 48 256 48s208 93.31 208 208-93.31 208-208 208zm0-384c-97 0-176 79-176 176s79 176 176 176 176-78.95 176-176S353.05 80 256 80z"/><path d="M323.67 292c-17.4 0-34.21-7.72-47.34-21.73a83.76 83.76 0 01-22-51.32c-1.47-20.7 4.88-39.75 17.88-53.62S303.38 144 323.67 144c20.14 0 38.37 7.62 51.33 21.46s19.47 33 18 53.51a84 84 0 01-22 51.3C357.86 284.28 341.06 292 323.67 292zm55.81-74zM163.82 295.36c-29.76 0-55.93-27.51-58.33-61.33-1.23-17.32 4.15-33.33 15.17-45.08s26.22-18 43.15-18 32.12 6.44 43.07 18.14 16.5 27.82 15.25 45c-2.44 33.77-28.6 61.27-58.31 61.27zM420.37 355.28c-1.59-4.7-5.46-9.71-13.22-14.46-23.46-14.33-52.32-21.91-83.48-21.91-30.57 0-60.23 7.9-83.53 22.25-26.25 16.17-43.89 39.75-51 68.18-1.68 6.69-4.13 19.14-1.51 26.11a192.18 192.18 0 00232.75-80.17zM163.63 401.37c7.07-28.21 22.12-51.73 45.47-70.75a8 8 0 00-2.59-13.77c-12-3.83-25.7-5.88-42.69-5.88-23.82 0-49.11 6.45-68.14 18.17-5.4 3.33-10.7 4.61-14.78 5.75a192.84 192.84 0 0077.78 86.64l1.79-.14a102.82 102.82 0 013.16-20.02z"/>
    </symbol>

    <symbol id="icon-news" viewBox="0 0 24 24">
        <path d="m5 11.5a1.5 1.5 0 0 1 1.5-1.5h11a1.5 1.5 0 0 1 0 3h-11a1.5 1.5 0 0 1 -1.5-1.5zm1.5 6.5h7a1.5 1.5 0 0 0 0-3h-7a1.5 1.5 0 0 0 0 3zm17.5-11.5v11a5.506 5.506 0 0 1 -5.5 5.5h-13a5.506 5.506 0 0 1 -5.5-5.5v-11a5.506 5.506 0 0 1 5.5-5.5h13a5.506 5.506 0 0 1 5.5 5.5zm-16-2a1.5 1.5 0 1 0 1.5-1.5 1.5 1.5 0 0 0 -1.5 1.5zm-5 0a1.5 1.5 0 1 0 1.5-1.5 1.5 1.5 0 0 0 -1.5 1.5zm18 3.5h-18v9.5a2.5 2.5 0 0 0 2.5 2.5h13a2.5 2.5 0 0 0 2.5-2.5z"/>
    </symbol>

    <symbol id="icon-home" viewBox="0 0 24 24">
        <path d="M23.121,9.069,15.536,1.483a5.008,5.008,0,0,0-7.072,0L.879,9.069A2.978,2.978,0,0,0,0,11.19v9.817a3,3,0,0,0,3,3H21a3,3,0,0,0,3-3V11.19A2.978,2.978,0,0,0,23.121,9.069ZM15,22.007H9V18.073a3,3,0,0,1,6,0Zm7-1a1,1,0,0,1-1,1H17V18.073a5,5,0,0,0-10,0v3.934H3a1,1,0,0,1-1-1V11.19a1.008,1.008,0,0,1,.293-.707L9.878,2.9a3.008,3.008,0,0,1,4.244,0l7.585,7.586A1.008,1.008,0,0,1,22,11.19Z"/>
    </symbol>

    <symbol id="icon-community" viewBox="0 0 35 27">
        <path d="M24.1829 5.86066C24.1829 5.86066 28.1239 5.86066 28.1239 9.76658C28.1239 9.76658 28.1239 13.6725 24.1829 13.6725M9.62119 5.86066C5.6802 5.86066 5.6802 9.76658 5.6802 9.76658C5.6802 13.6725 9.62119 13.6725 9.62119 13.6725M27.5226 23.7352H30.061C30.061 23.7352 33 23.7352 33 20.8223C33 20.8223 33 16.9164 26.12 16.9164M6.34809 23.7352H3.54263C3.54263 23.7352 1.00436 23.7352 1.00436 20.8223C1.00436 20.8223 0.603582 16.9164 7.48362 16.9164M16.9021 5C16.9021 5 20.8431 5 20.8431 8.90592C20.8431 8.90592 20.8431 12.8118 16.9021 12.8118C16.9021 12.8118 12.9611 12.8118 12.9611 8.90592C12.9611 8.90592 12.9611 5 16.9021 5ZM12.9611 24H20.8431C20.8431 24 23.7821 24 23.7821 21.0871C23.7821 21.0871 23.7821 17.1812 16.9021 17.1812C10.022 17.1812 10.4228 21.0871 10.4228 21.0871C10.4228 24 12.9611 24 12.9611 24Z" stroke="white" stroke-width="2" stroke-linecap="round"/>
    </symbol>

    <symbol id="icon-compass" viewBox="0 0 512 512">
        <path d="M448 256c0-106-86-192-192-192S64 150 64 256s86 192 192 192 192-86 192-192z" fill="none" stroke="currentColor" stroke-miterlimit="10" stroke-width="32"/><path d="M350.67 150.93l-117.2 46.88a64 64 0 00-35.66 35.66l-46.88 117.2a8 8 0 0010.4 10.4l117.2-46.88a64 64 0 0035.66-35.66l46.88-117.2a8 8 0 00-10.4-10.4zM256 280a24 24 0 1124-24 24 24 0 01-24 24z"/>
    </symbol>

    <symbol id="icon-document" viewBox="0 0 512 512">
        <path d="M416 221.25V416a48 48 0 01-48 48H144a48 48 0 01-48-48V96a48 48 0 0148-48h98.75a32 32 0 0122.62 9.37l141.26 141.26a32 32 0 019.37 22.62z" fill="none" stroke="currentColor" stroke-linejoin="round" stroke-width="32"/><path d="M256 56v120a32 32 0 0032 32h120M176 288h160M176 368h160" fill="none" stroke="currentColor" stroke-linecap="round" stroke-linejoin="round" stroke-width="32"/>
    </symbol>

    <symbol id="icon-dis" viewBox="0 0 512 512">
        <circle cx="256" cy="256" r="208" fill="none" stroke="currentColor" stroke-miterlimit="10" stroke-width="32"/><circle cx="256" cy="256" r="96" fill="none" stroke="currentColor" stroke-miterlimit="10" stroke-width="32"/><circle cx="256" cy="256" r="32"/>
    </symbol>

    <symbol id="icon-settings" viewBox="0 0 512 512">
        <path d="M456.7 242.27l-26.08-4.2a8 8 0 01-6.6-6.82c-.5-3.2-1-6.41-1.7-9.51a8.08 8.08 0 013.9-8.62l23.09-12.82a8.05 8.05 0 003.9-9.92l-4-11a7.94 7.94 0 00-9.4-5l-25.89 5a8 8 0 01-8.59-4.11q-2.25-4.2-4.8-8.41a8.16 8.16 0 01.7-9.52l17.29-19.94a8 8 0 00.3-10.62l-7.49-9a7.88 7.88 0 00-10.5-1.51l-22.69 13.63a8 8 0 01-9.39-.9c-2.4-2.11-4.9-4.21-7.4-6.22a8 8 0 01-2.5-9.11l9.4-24.75A8 8 0 00365 78.77l-10.2-5.91a8 8 0 00-10.39 2.21l-16.64 20.84a7.15 7.15 0 01-8.5 2.5s-5.6-2.3-9.8-3.71A8 8 0 01304 87l.4-26.45a8.07 8.07 0 00-6.6-8.42l-11.59-2a8.07 8.07 0 00-9.1 5.61l-8.6 25.05a8 8 0 01-7.79 5.41h-9.8a8.07 8.07 0 01-7.79-5.41l-8.6-25.05a8.07 8.07 0 00-9.1-5.61l-11.59 2a8.07 8.07 0 00-6.6 8.42l.4 26.45a8 8 0 01-5.49 7.71c-2.3.9-7.3 2.81-9.7 3.71-2.8 1-6.1.2-8.8-2.91l-16.51-20.34A8 8 0 00156.75 73l-10.2 5.91a7.94 7.94 0 00-3.3 10.09l9.4 24.75a8.06 8.06 0 01-2.5 9.11c-2.5 2-5 4.11-7.4 6.22a8 8 0 01-9.39.9L111 116.14a8 8 0 00-10.5 1.51l-7.49 9a8 8 0 00.3 10.62l17.29 19.94a8 8 0 01.7 9.52q-2.55 4-4.8 8.41a8.11 8.11 0 01-8.59 4.11l-25.89-5a8 8 0 00-9.4 5l-4 11a8.05 8.05 0 003.9 9.92L85.58 213a7.94 7.94 0 013.9 8.62c-.6 3.2-1.2 6.31-1.7 9.51a8.08 8.08 0 01-6.6 6.82l-26.08 4.2a8.09 8.09 0 00-7.1 7.92v11.72a7.86 7.86 0 007.1 7.92l26.08 4.2a8 8 0 016.6 6.82c.5 3.2 1 6.41 1.7 9.51a8.08 8.08 0 01-3.9 8.62L62.49 311.7a8.05 8.05 0 00-3.9 9.92l4 11a7.94 7.94 0 009.4 5l25.89-5a8 8 0 018.59 4.11q2.25 4.2 4.8 8.41a8.16 8.16 0 01-.7 9.52l-17.29 19.96a8 8 0 00-.3 10.62l7.49 9a7.88 7.88 0 0010.5 1.51l22.69-13.63a8 8 0 019.39.9c2.4 2.11 4.9 4.21 7.4 6.22a8 8 0 012.5 9.11l-9.4 24.75a8 8 0 003.3 10.12l10.2 5.91a8 8 0 0010.39-2.21l16.79-20.64c2.1-2.6 5.5-3.7 8.2-2.6 3.4 1.4 5.7 2.2 9.9 3.61a8 8 0 015.49 7.71l-.4 26.45a8.07 8.07 0 006.6 8.42l11.59 2a8.07 8.07 0 009.1-5.61l8.6-25a8 8 0 017.79-5.41h9.8a8.07 8.07 0 017.79 5.41l8.6 25a8.07 8.07 0 009.1 5.61l11.59-2a8.07 8.07 0 006.6-8.42l-.4-26.45a8 8 0 015.49-7.71c4.2-1.41 7-2.51 9.6-3.51s5.8-1 8.3 2.1l17 20.94A8 8 0 00355 439l10.2-5.91a7.93 7.93 0 003.3-10.12l-9.4-24.75a8.08 8.08 0 012.5-9.12c2.5-2 5-4.1 7.4-6.21a8 8 0 019.39-.9L401 395.66a8 8 0 0010.5-1.51l7.49-9a8 8 0 00-.3-10.62l-17.29-19.94a8 8 0 01-.7-9.52q2.55-4.05 4.8-8.41a8.11 8.11 0 018.59-4.11l25.89 5a8 8 0 009.4-5l4-11a8.05 8.05 0 00-3.9-9.92l-23.09-12.82a7.94 7.94 0 01-3.9-8.62c.6-3.2 1.2-6.31 1.7-9.51a8.08 8.08 0 016.6-6.82l26.08-4.2a8.09 8.09 0 007.1-7.92V250a8.25 8.25 0 00-7.27-7.73zM256 112a143.82 143.82 0 01139.38 108.12A16 16 0 01379.85 240H274.61a16 16 0 01-13.91-8.09l-52.1-91.71a16 16 0 019.85-23.39A146.94 146.94 0 01256 112zM112 256a144 144 0 0143.65-103.41 16 16 0 0125.17 3.47L233.06 248a16 16 0 010 15.87l-52.67 91.7a16 16 0 01-25.18 3.36A143.94 143.94 0 01112 256zm144 144a146.9 146.9 0 01-38.19-4.95 16 16 0 01-9.76-23.44l52.58-91.55a16 16 0 0113.88-8H379.9a16 16 0 0115.52 19.88A143.84 143.84 0 01256 400z"/>
    </symbol>

    <symbol id="icon-discovery" viewBox="0 0 512 512">
        <path d="M336.76 161l-186.53 82.35c-10.47 4.8-6.95 20.67 4.57 20.67H244a4 4 0 014 4v89.18c0 11.52 16 15 20.78 4.56L351 175.24A10.73 10.73 0 00336.76 161z"/><path d="M448 256c0-106-86-192-192-192S64 150 64 256s86 192 192 192 192-86 192-192z" fill="none" stroke="currentColor" stroke-miterlimit="10" stroke-width="32"/>
    </symbol>

    <symbol id="icon-search" viewBox="0 0 512 512">
        <path d="M221.09 64a157.09 157.09 0 10157.09 157.09A157.1 157.1 0 00221.09 64z" fill="none" stroke="currentColor" stroke-miterlimit="10" stroke-width="32"/><path fill="none" stroke="currentColor" stroke-linecap="round" stroke-miterlimit="10" stroke-width="32" d="M338.29 338.29L448 448"/>
    </symbol>

    <symbol id="icon-doc2" viewBox="0 0 512 512">
        <path d="M384 221.25V384a48 48 0 01-48 48H144a48 48 0 01-48-48V100a48 48 0 0148-50h66.8a32 32 0 0122.62 9.37l141.26 141.26a32 32 0 019.37 22.62z" fill="none" stroke="currentColor" stroke-linejoin="round" stroke-width="28"/>
        <path d="M225 62v120a32 32 0 0032 32h110M190 288h100M190 350h100" fill="none" stroke="currentColor" stroke-linecap="round" stroke-linejoin="round" stroke-width="28"/>
    </symbol>

    <symbol id="icon-logout" viewBox="0 0 512 512">
        <path d="M192 176v-40a40 40 0 0140-40h160a40 40 0 0140 40v240a40 40 0 01-40 40H240c-22.09 0-48-17.91-48-40v-40" fill="none" stroke="currentColor" stroke-linecap="round" stroke-linejoin="round" stroke-width="32"/><path fill="none" stroke="currentColor" stroke-linecap="round" stroke-linejoin="round" stroke-width="32" d="M288 336l80-80-80-80M80 256h272"/>
    </symbol>

    <symbol id="icon-fqa" viewBox="0 0 512 512">
        <path d="M431 320.6c-1-3.6 1.2-8.6 3.3-12.2a33.68 33.68 0 012.1-3.1A162 162 0 00464 215c.3-92.2-77.5-167-173.7-167-83.9 0-153.9 57.1-170.3 132.9a160.7 160.7 0 00-3.7 34.2c0 92.3 74.8 169.1 171 169.1 15.3 0 35.9-4.6 47.2-7.7s22.5-7.2 25.4-8.3a26.44 26.44 0 019.3-1.7 26 26 0 0110.1 2l56.7 20.1a13.52 13.52 0 003.9 1 8 8 0 008-8 12.85 12.85 0 00-.5-2.7z" fill="none" stroke="currentColor" stroke-linecap="round" stroke-miterlimit="10" stroke-width="32"/><path d="M66.46 232a146.23 146.23 0 006.39 152.67c2.31 3.49 3.61 6.19 3.21 8s-11.93 61.87-11.93 61.87a8 8 0 002.71 7.68A8.17 8.17 0 0072 464a7.26 7.26 0 002.91-.6l56.21-22a15.7 15.7 0 0112 .2c18.94 7.38 39.88 12 60.83 12A159.21 159.21 0 00284 432.11" fill="none" stroke="currentColor" stroke-linecap="round" stroke-miterlimit="10" stroke-width="32"/>
    </symbol>

    <symbol id="icon-support" viewBox="0 0 512 512">
        <circle cx="256" cy="256" r="208" fill="none" stroke="currentColor" stroke-linecap="round" stroke-linejoin="round" stroke-width="32"/><circle cx="256" cy="256" r="80" fill="none" stroke="currentColor" stroke-linecap="round" stroke-linejoin="round" stroke-width="32"/><path fill="none" stroke="currentColor" stroke-linecap="round" stroke-linejoin="round" stroke-width="32" d="M208 54l8 132M296 186l8-132M208 458l8-132M296 326l8 132M458 208l-132 8M326 296l132 8M54 208l132 8M186 296l-132 8"/>
    </symbol>

    <symbol id="icon-arrow-right" viewBox="0 0 512 512">
        <path fill="none" stroke="currentColor" stroke-linecap="round" stroke-linejoin="round" stroke-width="48" d="M184 112l144 144-144 144"/>        
    </symbol>

    <symbol id="icon-arrow-left" viewBox="0 0 512 512">
        <path fill="none" stroke="currentColor" stroke-linecap="round" stroke-linejoin="round" stroke-width="48" d="M328 112L184 256l144 144"/>
    </symbol>

    <symbol id="icon-minus-row" viewBox="0 0 512 512">
        <path fill="none" stroke="currentColor" stroke-linecap="round" stroke-linejoin="round" stroke-width="32" d="M400 256H112"/>
    </symbol>

    <symbol id="icon-isstar" viewBox="0 0 512 491">
        <path d="M221 86.4998C202.1 134.1 186.3 173.4 186 173.9C185.7 174.3 145.7 177.2 96.9998 180.4C48.2998 183.5 6.7998 186.4 4.5998 186.8L0.799805 187.5L71.3998 247.4C112.4 282.1 142 307.9 142 308.9C142 309.8 131.7 351 119 400.5C106.4 449.9 96.1998 490.5 96.3998 490.7C96.4998 490.8 131.9 468.6 175.1 441.3C224.6 409.9 254.4 391.6 256 391.6C257.6 391.6 287.4 409.9 336.9 441.3C380.1 468.6 415.5 490.8 415.6 490.7C415.8 490.5 405.6 449.9 393 400.5C380.3 351 370 309.8 370 308.9C370 307.9 399.6 282.1 440.6 247.4L511.2 187.5L507.4 186.8C505.2 186.4 463.7 183.5 415 180.4C366.3 177.2 326.3 174.3 326 173.9C325.7 173.4 309.9 134.1 291 86.4998C272.1 38.8998 256.3 -0.000152588 256 -0.000152588C255.7 -0.000152588 239.9 38.8998 221 86.4998Z" fill="black"/>
        <!-- <path d="M24.8203 8.9625C24.6072 8.28427 24.1815 7.69262 23.6062 7.27504C23.0308 6.85746 22.3364 6.63612 21.6255 6.64376H17.0744L15.6921 2.33542C15.4748 1.65726 15.0476 1.06565 14.4723 0.645914C13.897 0.226176 13.2032 0 12.4911 0C11.7789 0 11.0852 0.226176 10.5099 0.645914C9.93453 1.06565 9.50739 1.65726 9.29002 2.33542L7.90772 6.64376H3.35668C2.64808 6.64476 1.95792 6.86968 1.38478 7.28636C0.811638 7.70305 0.384839 8.2902 0.165339 8.96395C-0.0541605 9.6377 -0.055132 10.3636 0.162563 11.0379C0.380259 11.7122 0.805485 12.3005 1.37751 12.7187L5.08168 15.4271L3.67334 19.7885C3.44575 20.465 3.44287 21.1969 3.66512 21.8751C3.88738 22.5533 4.32287 23.1415 4.90668 23.5521C5.48048 23.9758 6.17584 24.2028 6.88913 24.1992C7.60243 24.1957 8.29548 23.9617 8.86502 23.5323L12.4911 20.8635L16.1182 23.5291C16.6909 23.9504 17.3826 24.1793 18.0936 24.1827C18.8046 24.1862 19.4984 23.9641 20.0752 23.5484C20.6521 23.1327 21.0822 22.5448 21.3039 21.8692C21.5256 21.1936 21.5273 20.4652 21.3088 19.7885L19.9005 15.4271L23.6088 12.7187C24.1874 12.3058 24.6176 11.7175 24.8358 11.041C25.054 10.3645 25.0485 9.63569 24.8203 8.9625Z" fill="#EEB1B1"/> -->
    </symbol>

    <symbol id="icon-kkal" viewBox="0 0 512 512">
        <path d="M112 320c0-93 124-165 96-272 66 0 192 96 192 272a144 144 0 01-288 0z" fill="none" stroke="currentColor" stroke-linecap="round" stroke-linejoin="round" stroke-width="32"/><path d="M320 368c0 57.71-32 80-64 80s-64-22.29-64-80 40-86 32-128c42 0 96 70.29 96 128z" fill="none" stroke="currentColor" stroke-linecap="round" stroke-linejoin="round" stroke-width="32"/>
    </symbol>

    <symbol id="icon-time" viewBox="0 0 512 512">
        <path d="M256 64C150 64 64 150 64 256s86 192 192 192 192-86 192-192S362 64 256 64z" fill="none" stroke="currentColor" stroke-miterlimit="10" stroke-width="32"/><path fill="none" stroke="currentColor" stroke-linecap="round" stroke-linejoin="round" stroke-width="32" d="M256 128v144h96"/>
    </symbol>

    <symbol id="icon-ingredients" viewBox="0 0 270 340">
        <path fill-rule="evenodd" clip-rule="evenodd" d="M116.305 42.3999L107.805 51.0999C99.9049 59.0999 99.3049 59.9999 99.3049 63.8999C99.3049 67.7999 99.9049 68.6999 107.805 76.8999L116.305 85.6998L136.305 105.8L140.505 109.4C143.805 112.2 145.505 113 148.705 113C152.605 113 153.305 112.4 175.005 90.6998L197.305 68.4999C197.305 68.4999 198.805 66.9999 198.805 63.8999C198.805 60.7999 197.305 59.4999 197.305 59.4999L175.005 37.2999C153.005 15.2999 152.705 14.9999 148.505 14.9999C145.105 14.9999 143.605 15.6999 140.305 18.5999L136.305 22.1999L116.305 42.3999ZM173.805 63.9999L161.305 51.4999C154.405 44.5999 148.605 38.9999 148.305 38.9999C148.005 38.9999 142.305 44.4999 135.505 51.2999L123.305 63.4999L136.105 76.2999L148.805 88.9998L161.305 76.4999L173.805 63.9999Z" fill="black"/>
        <path fill-rule="evenodd" clip-rule="evenodd" d="M116.305 128.8C114.305 128.5 107.605 129.2 107.605 129.2C93.2049 130 82.3049 135.6 74.1049 146.5C64.1049 159.6 62.5049 180.2 70.3049 193.7L72.2049 197H40.7049H9.10493C9.10493 197 3.30491 196.5 2.60493 198C1.90495 199.5 2.00494 204.1 2.00494 204.1L2.60493 214.5C4.40493 243.8 15.6049 271.6 34.4049 293.3C41.0049 301 52.7049 313.2 59.3049 317.5C59.3049 317.5 72.8049 326 76.8049 328C80.8049 330 101.305 339.5 133.305 339.5C165.305 339.5 179.305 332 179.305 332C179.305 332 229.59 312 253.205 267.9C261.505 252.4 267.305 230.3 267.605 212.8C267.805 203.4 267.605 201 266.805 199C266.005 197 262.305 197.5 262.305 197.5L204.305 197.2L146.405 197L148.805 192.2C157.305 175.4 153.305 153.7 139.405 140.6L136.305 137.6C136.305 137.6 129.805 131.5 116.305 128.8ZM129.805 160.5C127.905 157.4 124.905 154.4 121.905 152.6C114.805 148.2 105.905 147.8 98.5049 151.6C81.7049 160 80.8049 183.6 96.7049 193.5C101.105 196.2 102.505 196.5 109.205 196.5C117.605 196.5 121.005 195.1 126.205 189.9C131.405 184.7 132.705 181.3 132.805 172.9C132.805 166.2 132.505 164.8 129.805 160.5ZM240.805 246.5C243.705 238.9 247.205 224.2 247.305 219.7V217H135.205H23.0049L23.7049 223.5C25.9049 245.1 38.0049 269 55.7049 286.6C73.1049 304 93.6049 314.6 117.405 318.5C170.005 327 221.905 296.8 240.805 246.5Z" fill="black"/>
        <path d="M32.2928 2.09888C29.1928 3.89888 27.2928 7.49888 27.1928 11.4989C27.1928 14.2989 26.6928 14.8989 21.7928 17.0989C15.0928 20.1989 9.09279 26.0989 5.59279 32.9989C0.892794 42.0989 1.09279 48.7989 7.09279 80.7989C9.99279 95.8989 12.7928 109.999 13.3928 112.099C15.0928 117.699 21.1928 124.099 27.3928 126.799C39.8928 132.199 55.3928 125.799 60.1928 113.299C61.8928 108.799 72.1928 53.0989 72.1928 48.2989C72.1928 42.9989 69.6928 34.4989 66.7928 29.8989C63.5928 24.8989 56.7928 18.9989 51.6928 16.6989C47.8928 14.9989 47.3928 14.3989 46.8928 10.6989C45.8928 3.29888 38.1928 -1.20112 32.2928 2.09888ZM44.8928 35.7989C48.9928 38.2989 51.2928 41.7989 51.7928 46.4989C52.0928 48.6989 50.1928 61.2989 47.2928 77.1989C44.4928 92.0989 42.1928 104.499 42.1928 104.899C42.1928 108.099 35.3928 109.999 33.2928 107.499C32.6928 106.699 29.8928 93.7989 27.0928 78.6989C21.6928 49.6989 21.2928 43.5989 24.7928 39.5989C30.0928 33.6989 38.7928 31.9989 44.8928 35.7989Z" fill="black"/>
        <path d="M240.815 81.6485C239.715 82.1485 223.615 97.8485 205.115 116.448C169.015 152.648 169.415 152.148 172.715 158.548C174.415 161.848 182.415 168.048 189.315 171.348C206.915 179.848 228.415 177.948 244.515 166.448C258.015 156.848 267.215 139.348 267.315 123.148C267.315 110.048 262.015 95.8485 253.715 86.9485C248.615 81.5485 244.715 79.9485 240.815 81.6485ZM245.915 113.448C249.315 125.248 245.515 138.548 236.315 147.148C229.915 153.148 223.615 155.948 215.215 156.548C208.915 156.948 197.315 154.648 197.315 152.948C197.315 151.648 242.715 106.848 243.515 107.348C243.915 107.648 245.015 110.348 245.915 113.448Z" fill="black"/>
    </symbol>

    <symbol id="icon-isstar50" viewBox="0 0 512 512">
        <path d="M480 208H308L256 48l-52 160H32l140 96-54 160 138-100 138 100-54-160z" fill="none" stroke="currentColor" stroke-linejoin="round" stroke-width="32"/><path d="M256 48v316L118 464l54-160-140-96h172l52-160z"/>
    </symbol>

    <symbol id="icon-difficult" viewBox="0 0 512 512">
        <path d="M315.27 33L96 304h128l-31.51 173.23a2.36 2.36 0 002.33 2.77h0a2.36 2.36 0 001.89-.95L416 208H288l31.66-173.25a2.45 2.45 0 00-2.44-2.75h0a2.42 2.42 0 00-1.95 1z" fill="none" stroke="currentColor" stroke-linecap="round" stroke-linejoin="round" stroke-width="32"/>
    </symbol>

    <symbol id="icon-isChef" viewBox="0 0 10 10">
        <circle cx="5" cy="5" r="5" fill="#1CB5E0"/>
        <path d="M5 2L5.67354 4.07295H7.85317L6.08981 5.3541L6.76336 7.42705L5 6.1459L3.23664 7.42705L3.91019 5.3541L2.14683 4.07295H4.32646L5 2Z" fill="white"/>
    </symbol>

    <symbol id="icon-mark2" viewBox="0 0 512 512">
        <path d="M352 48H160a48 48 0 00-48 48v368l144-128 144 128V96a48 48 0 00-48-48z" fill="none" stroke="currentColor" stroke-linecap="round" stroke-linejoin="round" stroke-width="32"/>
    </symbol>

    <symbol id="icon-ismark2" viewBox="0 0 320 448">
        <path d="M64 16H256C268.73 16 280.939 21.0571 289.941 30.0589C298.943 39.0606 304 51.2696 304 64V432L160 304L16 432V64C16 51.2696 21.0571 39.0606 30.0589 30.0589C39.0606 21.0571 51.2696 16 64 16Z" fill="black" stroke="#030303" stroke-width="32" stroke-linecap="round" stroke-linejoin="round"/>
    </symbol>

    <symbol id="icon-vk" viewBox="0 0 512 512">
        <path d="M484.7 132c3.56-11.28 0-19.48-15.75-19.48h-52.37c-13.21 0-19.31 7.18-22.87 14.86 0 0-26.94 65.6-64.56 108.13-12.2 12.3-17.79 16.4-24.4 16.4-3.56 0-8.14-4.1-8.14-15.37V131.47c0-13.32-4.06-19.47-15.25-19.47H199c-8.14 0-13.22 6.15-13.22 12.3 0 12.81 18.81 15.89 20.84 51.76V254c0 16.91-3 20-9.66 20-17.79 0-61-66.11-86.92-141.44C105 117.64 99.88 112 86.66 112H33.79C18.54 112 16 119.17 16 126.86c0 13.84 17.79 83.53 82.86 175.77 43.21 63 104.72 96.86 160.13 96.86 33.56 0 37.62-7.69 37.62-20.5v-47.66c0-15.37 3.05-17.93 13.73-17.93 7.62 0 21.35 4.09 52.36 34.33C398.28 383.6 404.38 400 424.21 400h52.36c15.25 0 22.37-7.69 18.3-22.55-4.57-14.86-21.86-36.38-44.23-62-12.2-14.34-30.5-30.23-36.09-37.92-7.62-10.25-5.59-14.35 0-23.57-.51 0 63.55-91.22 70.15-122" fill-rule="evenodd"/>
    </symbol>

    <symbol id="icon-github" viewBox="0 0 512 512">
        <path d="M256 32C132.3 32 32 134.9 32 261.7c0 101.5 64.2 187.5 153.2 217.9a17.56 17.56 0 003.8.4c8.3 0 11.5-6.1 11.5-11.4 0-5.5-.2-19.9-.3-39.1a102.4 102.4 0 01-22.6 2.7c-43.1 0-52.9-33.5-52.9-33.5-10.2-26.5-24.9-33.6-24.9-33.6-19.5-13.7-.1-14.1 1.4-14.1h.1c22.5 2 34.3 23.8 34.3 23.8 11.2 19.6 26.2 25.1 39.6 25.1a63 63 0 0025.6-6c2-14.8 7.8-24.9 14.2-30.7-49.7-5.8-102-25.5-102-113.5 0-25.1 8.7-45.6 23-61.6-2.3-5.8-10-29.2 2.2-60.8a18.64 18.64 0 015-.5c8.1 0 26.4 3.1 56.6 24.1a208.21 208.21 0 01112.2 0c30.2-21 48.5-24.1 56.6-24.1a18.64 18.64 0 015 .5c12.2 31.6 4.5 55 2.2 60.8 14.3 16.1 23 36.6 23 61.6 0 88.2-52.4 107.6-102.3 113.3 8 7.1 15.2 21.1 15.2 42.5 0 30.7-.3 55.5-.3 63 0 5.4 3.1 11.5 11.4 11.5a19.35 19.35 0 004-.4C415.9 449.2 480 363.1 480 261.7 480 134.9 379.7 32 256 32z"/>
    </symbol>

    <symbol id="icon-youtube" viewBox="0 0 512 512">
        <path d="M508.64 148.79c0-45-33.1-81.2-74-81.2C379.24 65 322.74 64 265 64h-18c-57.6 0-114.2 1-169.6 3.6C36.6 67.6 3.5 104 3.5 149 1 184.59-.06 220.19 0 255.79q-.15 53.4 3.4 106.9c0 45 33.1 81.5 73.9 81.5 58.2 2.7 117.9 3.9 178.6 3.8q91.2.3 178.6-3.8c40.9 0 74-36.5 74-81.5 2.4-35.7 3.5-71.3 3.4-107q.34-53.4-3.26-106.9zM207 353.89v-196.5l145 98.2z"/>
    </symbol>

    <symbol id="icon-setup" viewBox="0 0 512 512">
        <circle cx="256" cy="256" r="32" fill="none" stroke="currentColor" stroke-miterlimit="10" stroke-width="32"/><circle cx="256" cy="416" r="32" fill="none" stroke="currentColor" stroke-miterlimit="10" stroke-width="32"/><circle cx="256" cy="96" r="32" fill="none" stroke="currentColor" stroke-miterlimit="10" stroke-width="32"/>
    </symbol>
</svg>